<svg xmlns="http://www.w3.org/2000/svg" viewBox="0 0 24 24" fill="none" stroke="currentColor" stroke-width="2" stroke-linecap="round" stroke-linejoin="round" class="feather feather-leaf" width="31.88" height="32">
  <path d="M2 12C2 6.48 6.48 2 12 2C13.42 2 14.79 2.37 16 3C16.23 3.11 16.46 3.24 16.66 3.41C18.44 4.81 20 7.25 20 10C20 13.87 16.51 17.96 12 19C8.11 20.31 4.1 21.34 2 20C3.22 15.83 6.93 14 8 10C9.07 6 8.24 2.74 7.99 2.11C7.77 1.68 7.18 1.5 6.83 1.74C6.57 1.94 6.44 2.24 6.45 2.56C6.52 3.54 6.79 4.46 7.3 5.01C8.15 5.96 9.72 6.42 11.18 6.74C12.64 7.06 14 7.39 14.88 8.03C16.34 9.23 17 10.85 17 12C17 13.1 16.22 14.13 15.2 14.55C14.02 15.03 12.75 15.16 11.5 15.13C9.98 15.1 8.56 14.62 7.49 13.91C6.41 13.2 5.69 12.22 5.5 11.06C5.48 10.97 5.46 10.89 5.43 10.81C5.42 10.72 5.4 10.63 5.39 10.54C5.25 9.96 4.77 9.58 4.16 9.58C3.54 9.58 3.07 10.06 2.86 10.55C2.33 12.05 2 13.47 2 15C2 14.29 2 13.57 2 12Z" fill="#34D399"/>
</svg>
